<svg xmlns="http://www.w3.org/2000/svg" xmlns:xlink="http://www.w3.org/1999/xlink" width="89.834" height="82.01" viewBox="0 0 89.834 82.01">
  <defs>
    <filter id="ambulance" x="0" y="0" width="89.834" height="82.01" filterUnits="userSpaceOnUse">
      <feOffset input="SourceAlpha"/>
      <feGaussianBlur stdDeviation="1.5" result="blur"/>
      <feFlood flood-opacity="0"/>
      <feComposite operator="in" in2="blur"/>
      <feComposite in="SourceGraphic"/>
    </filter>
  </defs>
  <g transform="matrix(1, 0, 0, 1, 0, 0)" filter="url(#ambulance)">
    <path id="ambulance-2" data-name="ambulance" d="M50.736,31.514a1.984,1.984,0,0,1,0-2.806l3.482-3.482a1.984,1.984,0,1,1,2.806,2.806l-3.482,3.482a1.984,1.984,0,0,1-2.806,0Zm-15.562,0a1.984,1.984,0,1,0,2.806-2.806L34.5,25.226a1.984,1.984,0,1,0-2.806,2.806Zm9.42-2.9a1.984,1.984,0,0,0,1.984-1.984V21.7a1.984,1.984,0,1,0-3.968,0v4.925A1.984,1.984,0,0,0,44.594,28.612ZM63.5,60.818a1.984,1.984,0,0,1-1.618,3.132H43.324a1.984,1.984,0,0,1-1.984-1.984V51.377a1.984,1.984,0,0,1,1.984-1.984H54.365a1.984,1.984,0,0,1,1.618.836Zm-5.459-.836-4.7-6.622H45.308v6.622ZM27.195,54.564H23.76V51.129a1.984,1.984,0,1,0-3.968,0v3.435H16.358a1.984,1.984,0,0,0,0,3.968h3.435v3.435a1.984,1.984,0,1,0,3.968,0V58.532h3.435a1.984,1.984,0,0,0,0-3.968ZM71.071,83.137a11.545,11.545,0,0,1-2.689,5.625H78.85a1.984,1.984,0,0,1,0,3.968H2.106a1.984,1.984,0,1,1,0-3.968H12.572a11.547,11.547,0,0,1-2.689-5.625h-7.9A1.984,1.984,0,0,1,0,81.153V42.78A1.984,1.984,0,0,1,1.984,40.8H37.966V38.173a6.6,6.6,0,0,1,6.59-6.59h.076a6.6,6.6,0,0,1,6.59,6.59V40.8h8.442a1.984,1.984,0,0,1,1.618.836L80.468,68.662a1.984,1.984,0,0,1,.366,1.148V81.153a1.984,1.984,0,0,1-1.984,1.984H71.071ZM41.934,40.8h5.32V38.173a2.625,2.625,0,0,0-2.622-2.622h-.076a2.625,2.625,0,0,0-2.623,2.622V40.8ZM28.9,81.153a7.609,7.609,0,1,0-7.609,7.609A7.618,7.618,0,0,0,28.9,81.153Zm22.046,7.609a11.547,11.547,0,0,1-2.689-5.625H32.7a11.545,11.545,0,0,1-2.689,5.625Zm16.327-7.609a7.609,7.609,0,1,0-7.609,7.609A7.618,7.618,0,0,0,67.273,81.153Zm3.8-1.984h5.8V70.443L58.639,44.764H3.968V79.169H9.883a11.579,11.579,0,0,1,22.814,0h15.56a11.579,11.579,0,0,1,22.814,0Zm-11.407-.21a2.194,2.194,0,1,0,2.193,2.194A2.194,2.194,0,0,0,59.664,78.96Zm-38.374,0a2.194,2.194,0,1,0,2.193,2.194A2.193,2.193,0,0,0,21.29,78.96Z" transform="translate(4.5 -15.22)" fill="#0068ff"/>
  </g>
</svg>
