<svg id="favourite" xmlns="http://www.w3.org/2000/svg" width="80" height="80" viewBox="0 0 80 80">
  <path id="Path_14" data-name="Path 14" d="M89.6,85.67H83.51a15.921,15.921,0,0,1-4.589,9.483l-21.8,21.8L43.066,102.89a25.56,25.56,0,0,0,24.16,33.893h3.819l16.655,15.5v-15.5h1.9a25.557,25.557,0,0,0,0-51.113ZM71.515,114.5H66.557v-4.692h4.958Zm10.166,0H76.723v-4.692h4.958Zm10.166,0H86.889v-4.692h4.958Z" transform="translate(-35.158 -72.284)" fill="#fff"/>
  <path id="Path_15" data-name="Path 15" d="M40.559,19.665a11.523,11.523,0,0,0-16.3-16.3l-2.3,2.3-2.3-2.3a11.523,11.523,0,0,0-16.3,16.3L21.967,38.257Z" transform="translate(0 0)" fill="#fff"/>
</svg>
