<svg xmlns="http://www.w3.org/2000/svg" width="142" height="70" viewBox="0 0 142 70">
  <g id="Group_3" data-name="Group 3" transform="translate(-2196 7.437)">
    <circle id="Ellipse_1" data-name="Ellipse 1" cx="7.5" cy="7.5" r="7.5" transform="translate(2210 -7.437)" fill="#fff"/>
    <circle id="Ellipse_2" data-name="Ellipse 2" cx="7.5" cy="7.5" r="7.5" transform="translate(2238 -7.437)" fill="#fff"/>
    <ellipse id="Ellipse_3" data-name="Ellipse 3" cx="7" cy="7.5" rx="7" ry="7.5" transform="translate(2267 -7.437)" fill="#fff"/>
    <ellipse id="Ellipse_4" data-name="Ellipse 4" cx="6.5" cy="7.5" rx="6.5" ry="7.5" transform="translate(2296 -7.437)" fill="#fff"/>
    <ellipse id="Ellipse_5" data-name="Ellipse 5" cx="7" cy="7.5" rx="7" ry="7.5" transform="translate(2324 -7.437)" fill="#fff"/>
    <ellipse id="Ellipse_6" data-name="Ellipse 6" cx="7" cy="7.5" rx="7" ry="7.5" transform="translate(2196 10.563)" fill="#fff"/>
    <ellipse id="Ellipse_7" data-name="Ellipse 7" cx="6.5" cy="7.5" rx="6.5" ry="7.5" transform="translate(2225 10.563)" fill="#fff"/>
    <ellipse id="Ellipse_8" data-name="Ellipse 8" cx="7" cy="7.5" rx="7" ry="7.5" transform="translate(2253 10.563)" fill="#fff"/>
    <circle id="Ellipse_9" data-name="Ellipse 9" cx="7.5" cy="7.5" r="7.5" transform="translate(2281 10.563)" fill="#fff"/>
    <circle id="Ellipse_10" data-name="Ellipse 10" cx="7.5" cy="7.5" r="7.5" transform="translate(2309 10.563)" fill="#fff"/>
    <circle id="Ellipse_11" data-name="Ellipse 11" cx="7.5" cy="7.5" r="7.5" transform="translate(2210 29.563)" fill="#fff"/>
    <circle id="Ellipse_12" data-name="Ellipse 12" cx="7.5" cy="7.5" r="7.5" transform="translate(2238 29.563)" fill="#fff"/>
    <ellipse id="Ellipse_13" data-name="Ellipse 13" cx="7" cy="7.5" rx="7" ry="7.5" transform="translate(2267 29.563)" fill="#fff"/>
    <ellipse id="Ellipse_14" data-name="Ellipse 14" cx="6.5" cy="7.5" rx="6.5" ry="7.5" transform="translate(2296 29.563)" fill="#fff"/>
    <ellipse id="Ellipse_15" data-name="Ellipse 15" cx="7" cy="7.5" rx="7" ry="7.5" transform="translate(2324 29.563)" fill="#fff"/>
    <ellipse id="Ellipse_16" data-name="Ellipse 16" cx="7" cy="7.5" rx="7" ry="7.5" transform="translate(2196 47.563)" fill="#fff"/>
    <ellipse id="Ellipse_17" data-name="Ellipse 17" cx="6.5" cy="7.5" rx="6.5" ry="7.5" transform="translate(2225 47.563)" fill="#fff"/>
    <ellipse id="Ellipse_18" data-name="Ellipse 18" cx="7" cy="7.5" rx="7" ry="7.5" transform="translate(2253 47.563)" fill="#fff"/>
    <circle id="Ellipse_19" data-name="Ellipse 19" cx="7.5" cy="7.5" r="7.5" transform="translate(2281 47.563)" fill="#fff"/>
    <circle id="Ellipse_20" data-name="Ellipse 20" cx="7.5" cy="7.5" r="7.5" transform="translate(2309 47.563)" fill="#fff"/>
  </g>
</svg>
