<svg xmlns="http://www.w3.org/2000/svg" width="65" height="65" viewBox="0 0 65 65">
  <path id="writing" d="M56.864.558a1.9,1.9,0,0,0-2.693,0L39.495,15.234H6.214A5.719,5.719,0,0,0,.5,20.947v26.66A5.719,5.719,0,0,0,6.214,53.32H8.245V63.1a1.9,1.9,0,0,0,3.266,1.332L22.376,53.32H44.554a5.719,5.719,0,0,0,5.713-5.713v-21.6L64.943,11.33a1.905,1.905,0,0,0,0-2.693ZM39.359,31.528l-5.386-5.386L50.131,9.984l5.386,5.386ZM31.944,29.5,36,33.557l-6.955,2.9ZM46.458,47.607a1.906,1.906,0,0,1-1.9,1.9H21.575a1.905,1.905,0,0,0-1.361.573l-8.16,8.342v-7.01a1.9,1.9,0,0,0-1.9-1.9H6.214a1.906,1.906,0,0,1-1.9-1.9V20.947a1.906,1.906,0,0,1,1.9-1.9H35.685L29.933,24.8a1.946,1.946,0,0,0-.421.636L24.241,38.086H13.958a1.9,1.9,0,1,0,0,3.807H25.511a1.926,1.926,0,0,0,.748-.153l13.809-5.752a1.934,1.934,0,0,0,.637-.421l5.753-5.753ZM58.21,12.676,52.824,7.29,55.517,4.6,60.9,9.984Zm0,0" transform="translate(-0.501)" fill="#0068ff"/>
</svg>
