<svg xmlns="http://www.w3.org/2000/svg" width="58.347" height="60.02" viewBox="0 0 58.347 60.02">
  <g id="phone-call" transform="translate(-2.949)">
    <path id="Path_2" data-name="Path 2" d="M127.627,7.863A26.669,26.669,0,0,0,108.644,0a2.127,2.127,0,0,0,0,4.254,22.591,22.591,0,0,1,22.592,22.592,2.127,2.127,0,0,0,4.254,0A26.669,26.669,0,0,0,127.627,7.863Z" transform="translate(-74.194 0)" fill="#0068ff"/>
    <path id="Path_3" data-name="Path 3" d="M118.877,58.065a2.127,2.127,0,0,0,4.254,0,14.505,14.505,0,0,0-14.487-14.486h0a2.127,2.127,0,0,0,0,4.254A10.246,10.246,0,0,1,118.877,58.065Z" transform="translate(-74.194 -31.218)" fill="#0068ff"/>
    <path id="Path_4" data-name="Path 4" d="M39.976,60.5c-3.242-.168-4.894,2.243-5.686,3.4A2.127,2.127,0,1,0,37.8,66.3c.936-1.368,1.36-1.584,1.935-1.557,1.841.216,9.092,5.53,9.818,7.191a2.2,2.2,0,0,1-.02,1.552,7.341,7.341,0,0,1-3.645,4.591,6.825,6.825,0,0,1-5.467-.185A60.117,60.117,0,0,1,20.7,65.056L20.7,65.05A60.109,60.109,0,0,1,7.88,45.355a6.828,6.828,0,0,1-.185-5.469,7.338,7.338,0,0,1,4.589-3.644,2.2,2.2,0,0,1,1.549-.022c1.667.729,6.98,7.979,7.195,9.8.031.6-.186,1.02-1.554,1.955a2.127,2.127,0,0,0,2.4,3.513c1.159-.791,3.57-2.439,3.4-5.692-.184-3.4-6.795-12.4-9.954-13.559a6.431,6.431,0,0,0-4.394-.026,11.449,11.449,0,0,0-7.1,5.9,10.949,10.949,0,0,0,.112,8.846,64.339,64.339,0,0,0,13.753,21.1l.043.043a64.355,64.355,0,0,0,21.082,13.73,12.62,12.62,0,0,0,4.75.99,9.75,9.75,0,0,0,4.095-.879,11.448,11.448,0,0,0,5.9-7.1,6.433,6.433,0,0,0-.022-4.384C52.379,67.294,43.38,60.684,39.976,60.5Z" transform="translate(0 -22.807)" fill="#0068ff"/>
  </g>
</svg>
